<?xml version="1.0" encoding="UTF-8" standalone="no" ?>
<!DOCTYPE svg PUBLIC "-//W3C//DTD SVG 1.1//EN" "http://www.w3.org/Graphics/SVG/1.1/DTD/svg11.dtd">
<svg xmlns="http://www.w3.org/2000/svg" xmlns:xlink="http://www.w3.org/1999/xlink" version="1.1" width="640" height="160" viewBox="0 0 640 160" xml:space="preserve">
<desc>Created with Fabric.js 3.6.6</desc>
<defs>
</defs>
<g transform="matrix(4.55 0 0 4.55 317.36 79.14)"  >
<path style="stroke: none; stroke-width: 1; stroke-dasharray: none; stroke-linecap: butt; stroke-dashoffset: 0; stroke-linejoin: miter; stroke-miterlimit: 4; fill: rgb(253,185,48); fill-rule: nonzero; opacity: 1;"  transform=" translate(-44.5, -17.04)" d="m 18.736 28.935 c -0.242 0.152 -0.497 0.385 -2.055 1.075 c -0.73 0.323 -2.462 0.91 -3.85 1 c -1.057 0.07 -3.227 0.193 -4.472 -0.99 c -1.184 -1.123 -1.27 -2.677 -1.213 -3.288 c 0.09 -0.997 0.16 -1.438 0.45 -2.466 c 0.846 0.088 1.838 0.066 2.973 -0.066 c 1.134 -0.13 2.404 -0.41 3.928 -1.09 c 1.11 -0.497 2.228 -1.372 3.205 -2.344 c 0.955 -0.95 1.74 -1.992 2.368 -3.112 c 0.628 -1.12 1.037 -2.262 1.226 -3.426 c 0.19 -1.163 0.105 -2.196 -0.246 -3.103 C 20.697 10.22 20.03 9.512 19.048 9 C 18.066 8.49 16.694 8.31 14.932 8.465 C 12.239 8.699 9.927 9.507 7.998 10.887 c -1.93 1.38 -3.456 3.038 -4.577 4.977 c -0.718 1.24 -1.265 2.52 -1.644 3.84 c -0.458 -0.103 -1.595 0.117 -1.758 1.192 c -0.157 1.03 0.76 1.65 1.2 1.738 c -0.187 1.89 -0.024 3.64 0.492 5.247 c 0.575 1.79 1.928 3.575 3.422 4.505 c 1.438 0.894 4.17 1.62 5.94 1.606 c 1.728 -0.013 3.64 -0.36 5.046 -0.743 c 1.406 -0.383 3.863 -1.598 4.247 -1.948 c 1.437 -1.312 -0.256 -3.228 -1.63 -2.365 z M 10.168 17.983 c 0.626 -1.152 1.293 -2.196 2.003 -3.13 c 0.71 -0.934 1.426 -1.7 2.15 -2.295 c 0.722 -0.596 1.404 -0.922 2.045 -0.978 c 0.8 -0.07 1.313 0.25 1.536 0.956 c 0.223 0.706 0.193 1.557 -0.09 2.55 c -0.286 0.994 -0.817 2.003 -1.602 3.023 c -0.787 1.023 -2.025 1.946 -2.863 2.354 c -0.898 0.437 -1.568 0.722 -2.38 0.857 c -0.812 0.137 -1.784 0.145 -2.406 0.086 c 0.476 -1.203 0.983 -2.27 1.608 -3.423 z m 32.836 -0.699 c -0.793 1.264 -1.436 2.58 -1.93 3.946 c -0.494 1.367 -0.808 2.687 -0.94 3.957 c -0.13 1.27 -0.065 2.467 0.194 3.592 c 0.26 1.122 0.748 2.09 1.464 2.898 c 0.717 0.81 1.665 1.413 2.847 1.81 c 1.18 0.397 4.226 0.86 6.814 -0.073 c 2.587 -0.93 4.843 -3.337 6.088 -4.98 c 1.245 -1.642 2.242 -3.36 2.988 -5.153 c 0.748 -1.792 1.245 -3.58 1.493 -5.362 c 0.248 -1.78 0.214 -3.377 -0.104 -4.786 c -0.318 -1.409 -0.925 -2.543 -1.825 -3.4 c -0.898 -0.86 -2.12 -1.267 -3.667 -1.228 c -2.158 0.06 -4.17 0.598 -6.034 1.617 c -1.864 1.02 -3.52 2.318 -4.962 3.897 c -1.377 1.5 -1.477 1.91 -2.428 3.264 z m 3.63 9.265 c 0.015 -1.31 0.227 -2.757 0.637 -4.343 c 0.412 -1.586 0.973 -3.104 1.685 -4.554 c 0.36 -0.793 0.77 -1.495 1.432 -2.45 c 0.69 -0.965 1.536 -1.77 2.444 -2.344 c 0.91 -0.575 2.47 -0.962 3.4 -1.043 c 1.057 -0.093 1.825 0.277 2.3 1.106 c 0.477 0.83 0.7 1.9 0.668 3.21 c -0.03 1.31 -0.283 2.763 -0.757 4.354 c -0.473 1.59 -1.133 3.1 -1.976 4.532 c 0 0 -0.908 1.427 -2.047 2.635 c -0.967 1.026 -1.38 1.38 -2.207 1.932 c -0.827 0.552 -2.225 1.057 -2.938 1.116 c -0.713 0.06 -1.598 -0.183 -2.024 -0.986 c -0.423 -0.804 -0.628 -1.86 -0.614 -3.168 z M 39.95 3.138 C 39.695 2.682 39.347 2.248 38.91 1.838 C 38.47 1.428 37.98 1.071 37.434 0.765 C 36.89 0.46 36.358 0.245 35.84 0.123 C 35.322 0.001 34.855 -0.007 34.44 0.1 C 34.023 0.208 33.724 0.47 33.542 0.886 l -0.96 2.15 c -0.498 1.115 -1.074 2.476 -1.728 4.083 c -0.652 1.607 -1.335 3.387 -2.047 5.338 c -0.712 1.95 -1.538 4.387 -2.114 6.345 c -0.576 1.958 -1.03 3.86 -1.367 5.71 c -0.337 1.85 -0.582 3.604 -0.453 5.004 c 0.1 1.095 0.546 2.326 1.172 3.147 c 0.867 1.134 2.315 1.314 3.286 1.388 c 0.8 0.06 2.53 -0.214 3.415 -0.535 c 0.85 -0.308 2.35 -0.916 3.24 -1.354 c 0.735 -0.36 1.313 -0.718 1.54 -0.93 c 1.157 -1.077 -0.085 -3.23 -1.805 -2.207 c -0.277 0.164 -0.717 0.41 -1.19 0.678 c -0.967 0.548 -2.207 1.17 -3.416 1.286 c -1.338 0.126 -2.346 -0.46 -2.503 -1.575 c -0.156 -1.116 1.354 -4.347 2.03 -5.818 c 0.674 -1.472 1.408 -2.99 2.204 -4.558 c 0.796 -1.567 1.788 -3.6 2.615 -5.14 c 0.826 -1.535 1.582 -2.953 2.27 -4.252 c 0.685 -1.3 1.26 -2.404 1.717 -3.318 c 0.46 -0.912 0.72 -1.535 0.78 -1.866 c 0.072 -0.43 -0.02 -0.87 -0.276 -1.326 z m 36.972 8.504 c 1.208 -1.876 2.967 -4.677 4.185 -6.416 c 0.27 -0.385 -3.737 0.453 -5.192 0.913 c -1.456 0.46 -2.826 0.842 -4.112 1.146 c -1.286 0.305 -2.5 0.73 -3.53 0.87 c -1.03 0.14 -1.86 0.2 -2.493 0.185 c -0.49 0 -0.838 -0.16 -1.043 -0.482 c -0.205 -0.32 -0.3 -0.723 -0.282 -1.206 c 0.016 -0.482 0.18 -1.21 0.377 -1.775 c 0.197 -0.565 0.46 -1.106 0.785 -1.627 c 0.326 -0.52 0.686 -0.985 1.082 -1.393 c 0.393 -0.408 0.808 -0.683 1.244 -0.826 c 0.737 -0.237 1.747 -0.314 3.039 -0.231 c 1.29 0.087 2.67 0.183 4.14 0.29 c 1.468 0.11 2.93 0.16 4.38 0.15 c 1.45 -0.01 3.105 -0.36 3.81 -0.707 c 0.705 -0.348 1.22 -0.627 1.973 -0.508 c 0.753 0.12 1.435 0.414 2.047 0.88 c 0.612 0.467 1.083 1.057 1.416 1.768 c 0.33 0.712 0.34 1.417 0.022 2.117 c -0.16 0.35 -0.418 0.974 -1.127 1.623 c -2.967 2.72 -6.16 6.875 -8.173 9.448 c -4.43 5.66 -5.383 7.82 -6.396 9.47 c -1.384 2.256 -4.127 7.807 -4.547 8.276 c -0.58 0.646 -1.232 0.486 -1.69 0.346 c -0.46 -0.14 -1.033 -0.89 -0.777 -1.723 c 0.155 -0.505 4.925 -10.106 5.973 -12.036 c 0.93 -1.556 3.422 -6.276 4.89 -8.552 z" stroke-linecap="round" />
</g>
</svg>