<svg id="Camada_1" data-name="Camada 1" xmlns="http://www.w3.org/2000/svg" viewBox="0 0 1073.46 145.66"><defs><style>.cls-1{fill:#164762;}.cls-2{fill:#1fadcd;}</style></defs><path class="cls-1" d="M180.48,7.34h-3.69a23.2,23.2,0,0,0-21.5,14.36,23,23,0,0,0-1.76,8.9v98.58a23.19,23.19,0,0,0,1.77,8.89,23.43,23.43,0,0,0,5,7.54,23.27,23.27,0,0,0,16.45,6.79h3.69a23.2,23.2,0,0,0,23.3-23.22V86.83H177.67v13.88h12v28.47a9.3,9.3,0,0,1-9.19,9.34h-3.69a9.24,9.24,0,0,1-3.64-.65,9.4,9.4,0,0,1-3.11-2A9.28,9.28,0,0,1,168,132.8a9.18,9.18,0,0,1-.73-3.62V30.6a9.33,9.33,0,0,1,2.8-6.71,9.43,9.43,0,0,1,3.11-2,9.66,9.66,0,0,1,3.65-.65h3.69a9.3,9.3,0,0,1,9.19,9.38V47.18h13.92V30.6A23.23,23.23,0,0,0,180.48,7.34" transform="translate(-3.27 -7.17)"/><polygon class="cls-1" points="0 0.17 0 14.05 24.14 14.05 24.14 145.45 38.03 145.45 38.03 14.05 62.1 14.05 62.1 0.17 0 0.17"/><rect class="cls-2" x="234.62" y="0.17" width="13.88" height="145.2"/><polygon class="cls-2" points="313.18 0.17 327.06 0.17 327.06 145.38 313.18 145.38 313.18 50.01 301.77 90.63 287.96 90.63 276.48 50.01 276.48 145.38 262.6 145.38 262.6 0.17 276.48 0.17 294.94 65.7 313.18 0.17"/><polygon class="cls-2" points="395.37 0.47 395.37 14.35 360.77 14.35 360.77 66.03 388.76 66.03 388.76 79.96 360.77 79.96 360.77 145.38 347.04 145.38 347.04 0.17 395.37 0.47"/><path class="cls-1" d="M516.35,58.48a3.25,3.25,0,0,1-2.36-1L472.83,16.35a5.14,5.14,0,0,0-3.69-1.55,5.34,5.34,0,0,0-2,.4,5.28,5.28,0,0,0-1.69,1.15L452.15,29.68a3.36,3.36,0,0,1-5.73-2.37,3.33,3.33,0,0,1,.26-1.28,3.5,3.5,0,0,1,.75-1.08l13.29-13.33a11.9,11.9,0,0,1,16.72,0l41.17,41.17a3.37,3.37,0,0,1,0,4.73,3.51,3.51,0,0,1-2.26,1" transform="translate(-3.27 -7.17)"/><path class="cls-2" d="M469.21,62.72,447.54,41.05A3.2,3.2,0,0,1,446.8,40a3.15,3.15,0,0,1-.26-1.28,3.2,3.2,0,0,1,.26-1.29,3.3,3.3,0,0,1,.74-1.08,3.36,3.36,0,0,1,4.72,0l16.95,17L514,8.41a3.58,3.58,0,0,1,1.09-.88,3.47,3.47,0,0,1,2.73-.14,3.43,3.43,0,0,1,1.16.76,3.4,3.4,0,0,1,.77,1.18A3.52,3.52,0,0,1,520,10.7a3.36,3.36,0,0,1-.37,1.35,3.31,3.31,0,0,1-.88,1.09Z" transform="translate(-3.27 -7.17)"/><path class="cls-1" d="M524.81,58.48a3.33,3.33,0,0,1-1.86-.56,3.22,3.22,0,0,1-1.24-1.49,3.36,3.36,0,0,1-.19-1.93,3.28,3.28,0,0,1,.93-1.71l41.12-41.17a11.92,11.92,0,0,1,16.73,0L593.59,25a3.29,3.29,0,0,1,1,2.36,3.34,3.34,0,0,1-.26,1.29,3.2,3.2,0,0,1-.74,1.08,3.37,3.37,0,0,1-4.73,0L575.57,16.35a5.17,5.17,0,0,0-1.69-1.15,5.2,5.2,0,0,0-4,0,5.17,5.17,0,0,0-1.69,1.15L527.13,57.52a3.28,3.28,0,0,1-1.07.71,3.32,3.32,0,0,1-1.25.25" transform="translate(-3.27 -7.17)"/><path class="cls-1" d="M571.91,57.74a11.72,11.72,0,0,1-8.34-3.47L522.44,13.14a3.33,3.33,0,0,1,2.34-5.69,3.28,3.28,0,0,1,2.35,1L568.3,49.54A4.94,4.94,0,0,0,570,50.71a5.09,5.09,0,0,0,5.7-1.17L589,36.25a3.37,3.37,0,0,1,2.36-1,3.34,3.34,0,0,1,2.36,1,3.23,3.23,0,0,1,.75,1.08,3.33,3.33,0,0,1,.26,1.28,3.38,3.38,0,0,1-.26,1.29,3.33,3.33,0,0,1-.75,1.08L580.4,54.27a11.82,11.82,0,0,1-8.49,3.47" transform="translate(-3.27 -7.17)"/><path class="cls-1" d="M113.29,109.57,101.88,44.78,90.51,109.57Zm-4-102,25.25,144.91H120.71l-4.95-28.76H88.18l-4.94,28.76H69.39L94.65,7.53Z" transform="translate(-3.27 -7.17)"/><path class="cls-1" d="M455.21,81.17V110.5h-5.88V81.17Z" transform="translate(-3.27 -7.17)"/><path class="cls-1" d="M490.27,110.5h-5.89L471.06,90.37V110.5h-5.89V81.13h5.89l13.32,20.17V81.13h5.89Z" transform="translate(-3.27 -7.17)"/><path class="cls-1" d="M518.39,81.17v4.75H506.15v7.52h9.38V98.1h-9.38v12.4h-5.88V81.17Z" transform="translate(-3.27 -7.17)"/><path class="cls-1" d="M541.84,110.5l-6.47-11.43h-2.78V110.5h-5.88V81.17h11a12.85,12.85,0,0,1,5.8,1.19,8.36,8.36,0,0,1,3.59,3.24,8.83,8.83,0,0,1,1.2,4.56,8.73,8.73,0,0,1-1.68,5.23,8.63,8.63,0,0,1-5,3.22l7,11.89Zm-9.25-15.84h4.92a4.9,4.9,0,0,0,3.57-1.16,4.27,4.27,0,0,0,1.18-3.21,4.11,4.11,0,0,0-1.18-3.14A5,5,0,0,0,537.51,86h-4.92Z" transform="translate(-3.27 -7.17)"/><path class="cls-1" d="M575.84,104.91H564.16l-1.94,5.59h-6.17L566.6,81.13h6.85L584,110.5h-6.22Zm-1.6-4.7L570,87.93l-4.25,12.28Z" transform="translate(-3.27 -7.17)"/><path class="cls-1" d="M598,85.92v7.35h9.88v4.67H598v7.77h11.14v4.79h-17V81.13h17v4.79Z" transform="translate(-3.27 -7.17)"/><path class="cls-1" d="M623.28,109.75a9,9,0,0,1-3.89-3,7.86,7.86,0,0,1-1.47-4.66h6.3a4.09,4.09,0,0,0,1.28,2.85,4.56,4.56,0,0,0,3.18,1.06,4.85,4.85,0,0,0,3.23-1,3.2,3.2,0,0,0,1.18-2.59,3,3,0,0,0-.8-2.14,5.75,5.75,0,0,0-2-1.33,33.33,33.33,0,0,0-3.3-1.07,34.6,34.6,0,0,1-4.65-1.66,8.1,8.1,0,0,1-3.07-2.48A7.07,7.07,0,0,1,618,89.28a7.91,7.91,0,0,1,1.3-4.54,8.24,8.24,0,0,1,3.66-3,13.24,13.24,0,0,1,5.38-1A11.68,11.68,0,0,1,635.72,83a8.21,8.21,0,0,1,3.13,6.16h-6.47a3.38,3.38,0,0,0-1.29-2.5,4.79,4.79,0,0,0-3.17-1,4.11,4.11,0,0,0-2.75.88,3.2,3.2,0,0,0-1,2.57,2.65,2.65,0,0,0,.78,2,5.77,5.77,0,0,0,1.93,1.26,31.65,31.65,0,0,0,3.26,1.12,34.16,34.16,0,0,1,4.66,1.68,8.35,8.35,0,0,1,3.11,2.52,7,7,0,0,1,1.3,4.41,8.22,8.22,0,0,1-1.22,4.37,8.56,8.56,0,0,1-3.57,3.22,12.16,12.16,0,0,1-5.59,1.2A13.93,13.93,0,0,1,623.28,109.75Z" transform="translate(-3.27 -7.17)"/><path class="cls-1" d="M668.44,81.17v4.75h-7.82V110.5h-5.89V85.92h-7.81V81.17Z" transform="translate(-3.27 -7.17)"/><path class="cls-1" d="M692,110.5l-6.48-11.43h-2.77V110.5h-5.88V81.17h11a12.85,12.85,0,0,1,5.8,1.19,8.36,8.36,0,0,1,3.59,3.24,8.83,8.83,0,0,1,1.2,4.56,8.73,8.73,0,0,1-1.68,5.23,8.63,8.63,0,0,1-5,3.22l7,11.89Zm-9.25-15.84h4.92a4.9,4.9,0,0,0,3.57-1.16,4.27,4.27,0,0,0,1.18-3.21,4.11,4.11,0,0,0-1.18-3.14A5,5,0,0,0,687.69,86h-4.92Z" transform="translate(-3.27 -7.17)"/><path class="cls-1" d="M713.83,81.17V99.32a6.21,6.21,0,0,0,1.56,4.56,5.81,5.81,0,0,0,4.37,1.58,5.89,5.89,0,0,0,4.41-1.58,6.21,6.21,0,0,0,1.55-4.56V81.17h5.93V99.28a11.7,11.7,0,0,1-1.62,6.33,10.15,10.15,0,0,1-4.33,3.88,13.68,13.68,0,0,1-6,1.31,13.39,13.39,0,0,1-5.95-1.31,9.87,9.87,0,0,1-4.22-3.88A12,12,0,0,1,708,99.28V81.17Z" transform="translate(-3.27 -7.17)"/><path class="cls-1" d="M761.49,81.17v4.75h-7.82V110.5h-5.88V85.92H740V81.17Z" transform="translate(-3.27 -7.17)"/><path class="cls-1" d="M775.74,81.17V99.32a6.21,6.21,0,0,0,1.56,4.56,5.81,5.81,0,0,0,4.37,1.58,5.88,5.88,0,0,0,4.41-1.58,6.21,6.21,0,0,0,1.56-4.56V81.17h5.92V99.28a11.7,11.7,0,0,1-1.61,6.33,10.26,10.26,0,0,1-4.33,3.88,13.74,13.74,0,0,1-6,1.31,13.36,13.36,0,0,1-6-1.31,9.9,9.9,0,0,1-4.23-3.88,12.14,12.14,0,0,1-1.55-6.33V81.17Z" transform="translate(-3.27 -7.17)"/><path class="cls-1" d="M818.57,110.5,812.1,99.07h-2.77V110.5h-5.89V81.17h11a12.89,12.89,0,0,1,5.81,1.19,8.42,8.42,0,0,1,3.59,3.24,8.83,8.83,0,0,1,1.2,4.56,8.48,8.48,0,0,1-6.69,8.45l7,11.89Zm-9.24-15.84h4.91a4.94,4.94,0,0,0,3.58-1.16A4.31,4.31,0,0,0,819,90.29a4.14,4.14,0,0,0-1.17-3.14A5.07,5.07,0,0,0,814.24,86h-4.91Z" transform="translate(-3.27 -7.17)"/><path class="cls-1" d="M852.57,104.91H840.89L839,110.5h-6.18l10.55-29.37h6.85l10.55,29.37h-6.22Zm-1.59-4.7-4.25-12.28-4.24,12.28Z" transform="translate(-3.27 -7.17)"/><path class="cls-1" d="M467.72,125a12.93,12.93,0,0,1,5.42,5.14,15.42,15.42,0,0,1,1.91,7.76,15.15,15.15,0,0,1-1.91,7.71,13,13,0,0,1-5.42,5.11,17.59,17.59,0,0,1-8.14,1.81H449.33V123.2h10.25A17.47,17.47,0,0,1,467.72,125Zm-1.2,20a9.61,9.61,0,0,0,2.52-7.1,9.86,9.86,0,0,0-2.52-7.17q-2.52-2.58-7.15-2.58h-4.16v19.38h4.16C462.46,147.54,464.84,146.69,466.52,145Z" transform="translate(-3.27 -7.17)"/><path class="cls-1" d="M489.68,150.9a14.51,14.51,0,0,1-5.47-5.36,15.89,15.89,0,0,1,0-15.47,14.51,14.51,0,0,1,5.47-5.36,15.83,15.83,0,0,1,15.15,0,14.38,14.38,0,0,1,5.42,5.36,16,16,0,0,1,0,15.47,14.29,14.29,0,0,1-5.44,5.36,15.79,15.79,0,0,1-15.13,0Zm12.23-4.52a8.12,8.12,0,0,0,3.15-3.43,12.25,12.25,0,0,0,0-10.32,8.05,8.05,0,0,0-3.15-3.38,9.13,9.13,0,0,0-4.67-1.18,9.24,9.24,0,0,0-4.68,1.18,8.12,8.12,0,0,0-3.18,3.38,12.35,12.35,0,0,0,0,10.32,8.19,8.19,0,0,0,3.18,3.43,9.06,9.06,0,0,0,4.68,1.2A8.94,8.94,0,0,0,501.91,146.38Z" transform="translate(-3.27 -7.17)"/><path class="cls-1" d="M567,123.2v29.34h-5.89V133.45l-7.86,19.09h-4.45l-7.91-19.09v19.09H535V123.2h6.68L551,145l9.34-21.81Z" transform="translate(-3.27 -7.17)"/><path class="cls-1" d="M582.9,128v7.35h9.88V140H582.9v7.77H594v4.8H577V123.16h17V128Z" transform="translate(-3.27 -7.17)"/><path class="cls-1" d="M618.71,152.54l-6.47-11.44h-2.77v11.44h-5.89V123.2h11a12.88,12.88,0,0,1,5.8,1.2,8.4,8.4,0,0,1,3.59,3.23,9.13,9.13,0,0,1-.48,9.8,8.66,8.66,0,0,1-5,3.21l7,11.9Zm-9.24-15.85h4.91a4.94,4.94,0,0,0,3.58-1.16,4.31,4.31,0,0,0,1.17-3.21,4.1,4.1,0,0,0-1.17-3.13,5.07,5.07,0,0,0-3.58-1.12h-4.91Z" transform="translate(-3.27 -7.17)"/><path class="cls-1" d="M635.25,130.07a14.12,14.12,0,0,1,5.34-5.34,15.23,15.23,0,0,1,7.59-1.91,14.89,14.89,0,0,1,8.61,2.52,13.23,13.23,0,0,1,5.18,7H655.2a7,7,0,0,0-2.84-3.15,8.34,8.34,0,0,0-4.22-1,8.67,8.67,0,0,0-4.56,1.19,8.19,8.19,0,0,0-3.12,3.39,12.34,12.34,0,0,0,0,10.23,8.19,8.19,0,0,0,3.12,3.41,8.67,8.67,0,0,0,4.56,1.2,8.15,8.15,0,0,0,4.22-1.08,7.1,7.1,0,0,0,2.84-3.17H662a13.18,13.18,0,0,1-5.15,7,16.08,16.08,0,0,1-16.23.58,14,14,0,0,1-5.34-5.31,16.36,16.36,0,0,1,0-15.49Z" transform="translate(-3.27 -7.17)"/><path class="cls-1" d="M689.2,147H677.52l-1.94,5.59H669.4L680,123.16h6.86l10.54,29.38h-6.21Zm-1.6-4.71L683.36,130l-4.25,12.28Z" transform="translate(-3.27 -7.17)"/><path class="cls-1" d="M723.9,125a12.93,12.93,0,0,1,5.42,5.14,15.42,15.42,0,0,1,1.91,7.76,15.15,15.15,0,0,1-1.91,7.71,13,13,0,0,1-5.42,5.11,17.59,17.59,0,0,1-8.14,1.81H705.51V123.2h10.25A17.47,17.47,0,0,1,723.9,125Zm-1.2,20a9.61,9.61,0,0,0,2.52-7.1,9.86,9.86,0,0,0-2.52-7.17q-2.52-2.58-7.15-2.58h-4.16v19.38h4.16C718.64,147.54,721,146.69,722.7,145Z" transform="translate(-3.27 -7.17)"/><path class="cls-1" d="M745.86,150.9a14.51,14.51,0,0,1-5.47-5.36,15.89,15.89,0,0,1,0-15.47,14.51,14.51,0,0,1,5.47-5.36,15.83,15.83,0,0,1,15.15,0,14.38,14.38,0,0,1,5.42,5.36,16,16,0,0,1,0,15.47A14.29,14.29,0,0,1,761,150.9a15.79,15.79,0,0,1-15.13,0Zm12.23-4.52a8.19,8.19,0,0,0,3.15-3.43,12.25,12.25,0,0,0,0-10.32,8.11,8.11,0,0,0-3.15-3.38,9.13,9.13,0,0,0-4.67-1.18,9.24,9.24,0,0,0-4.68,1.18,8.12,8.12,0,0,0-3.18,3.38,12.35,12.35,0,0,0,0,10.32,8.19,8.19,0,0,0,3.18,3.43,9.06,9.06,0,0,0,4.68,1.2A8.94,8.94,0,0,0,758.09,146.38Z" transform="translate(-3.27 -7.17)"/><path class="cls-1" d="M809.33,123.2V128H797.09v7.52h9.38v4.67h-9.38v12.4h-5.88V123.2Z" transform="translate(-3.27 -7.17)"/><path class="cls-1" d="M823.53,123.2v29.34h-5.88V123.2Z" transform="translate(-3.27 -7.17)"/><path class="cls-1" d="M858.63,152.54h-5.89L839.42,132.4v20.14h-5.89V123.16h5.89l13.32,20.17V123.16h5.89Z" transform="translate(-3.27 -7.17)"/><path class="cls-1" d="M886.62,147H874.94L873,152.54h-6.17l10.54-29.38h6.86l10.55,29.38h-6.22Zm-1.6-4.71L880.78,130l-4.25,12.28Z" transform="translate(-3.27 -7.17)"/><path class="cls-1" d="M928,152.54h-5.88L908.81,132.4v20.14h-5.88V123.16h5.88l13.33,20.17V123.16H928Z" transform="translate(-3.27 -7.17)"/><path class="cls-1" d="M938.55,130.07a14,14,0,0,1,5.34-5.34,15.16,15.16,0,0,1,7.58-1.91,15,15,0,0,1,8.62,2.52,13.16,13.16,0,0,1,5.17,7h-6.77a7,7,0,0,0-2.83-3.15,8.35,8.35,0,0,0-4.23-1,8.67,8.67,0,0,0-4.56,1.19,8.17,8.17,0,0,0-3.11,3.39,12.34,12.34,0,0,0,0,10.23,8.17,8.17,0,0,0,3.11,3.41,8.67,8.67,0,0,0,4.56,1.2,8.17,8.17,0,0,0,4.23-1.08,7.08,7.08,0,0,0,2.83-3.17h6.77a13.13,13.13,0,0,1-5.15,7,16.06,16.06,0,0,1-16.22.58,13.9,13.9,0,0,1-5.34-5.31,16.28,16.28,0,0,1,0-15.49Z" transform="translate(-3.27 -7.17)"/><path class="cls-1" d="M980.39,128v7.35h9.88V140h-9.88v7.77h11.14v4.8h-17V123.16h17V128Z" transform="translate(-3.27 -7.17)"/><path class="cls-1" d="M1007,123.2v29.34h-5.89V123.2Z" transform="translate(-3.27 -7.17)"/><path class="cls-1" d="M1032.09,152.54l-6.47-11.44h-2.78v11.44H1017V123.2h11a12.82,12.82,0,0,1,5.8,1.2,8.37,8.37,0,0,1,3.6,3.23,8.92,8.92,0,0,1,1.19,4.56,8.76,8.76,0,0,1-1.68,5.24,8.67,8.67,0,0,1-5,3.21l7,11.9Zm-9.25-15.85h4.92a4.94,4.94,0,0,0,3.58-1.16,4.31,4.31,0,0,0,1.17-3.21,4.1,4.1,0,0,0-1.17-3.13,5.07,5.07,0,0,0-3.58-1.12h-4.92Z" transform="translate(-3.27 -7.17)"/><path class="cls-1" d="M1054.16,150.9a14.51,14.51,0,0,1-5.47-5.36,15.89,15.89,0,0,1,0-15.47,14.51,14.51,0,0,1,5.47-5.36,15.83,15.83,0,0,1,15.15,0,14.38,14.38,0,0,1,5.42,5.36,16,16,0,0,1,0,15.47,14.36,14.36,0,0,1-5.44,5.36,15.79,15.79,0,0,1-15.13,0Zm12.23-4.52a8.25,8.25,0,0,0,3.15-3.43,12.25,12.25,0,0,0,0-10.32,8.18,8.18,0,0,0-3.15-3.38,9.85,9.85,0,0,0-9.35,0,8.12,8.12,0,0,0-3.18,3.38,12.35,12.35,0,0,0,0,10.32,8.19,8.19,0,0,0,3.18,3.43,9.71,9.71,0,0,0,9.35,0Z" transform="translate(-3.27 -7.17)"/></svg>