<svg xmlns="http://www.w3.org/2000/svg" xmlns:xlink="http://www.w3.org/1999/xlink" preserveAspectRatio="xMidYMid meet" version="1.0" viewBox="10.4 5.6 79.3 88.9" zoomAndPan="magnify" style="fill: rgb(0, 0, 0);" role="img" aria-label="Network Connections Illustration"><g><g id="__id12_s51lpru22r"><path d="M24.846,34.549c7.993,0,14.496-6.503,14.496-14.496c0-7.993-6.503-14.496-14.496-14.496 c-7.993,0-14.496,6.503-14.496,14.496C10.35,28.046,16.853,34.549,24.846,34.549z M24.846,9.557 c5.787,0,10.496,4.708,10.496,10.496c0,5.787-4.708,10.496-10.496,10.496c-5.788,0-10.496-4.708-10.496-10.496 C14.35,14.266,19.059,9.557,24.846,9.557z" style="fill: rgb(255, 255, 255);"></path></g><g id="__id13_s51lpru22r"><path d="M77.21,57.888c-6.859,0-12.44,5.581-12.44,12.44s5.581,12.439,12.44,12.439s12.44-5.58,12.44-12.439 S84.069,57.888,77.21,57.888z M77.21,78.768c-4.654,0-8.44-3.786-8.44-8.439c0-4.654,3.786-8.44,8.44-8.44s8.44,3.786,8.44,8.44 C85.65,74.981,81.864,78.768,77.21,78.768z" style="fill: rgb(255, 255, 255);"></path></g><g id="__id14_s51lpru22r"><path d="M62.929,26.1c3.699,0,6.709-3.01,6.709-6.709s-3.01-6.709-6.709-6.709s-6.709,3.01-6.709,6.709 S59.229,26.1,62.929,26.1z M62.929,16.682c1.494,0,2.709,1.215,2.709,2.709S64.423,22.1,62.929,22.1s-2.709-1.215-2.709-2.709 S61.435,16.682,62.929,16.682z" style="fill: rgb(255, 253, 76);"></path></g><g id="__id15_s51lpru22r"><path d="M27.895,55.18c0-3.699-3.01-6.708-6.709-6.708s-6.709,3.009-6.709,6.708s3.01,6.709,6.709,6.709 S27.895,58.879,27.895,55.18z M18.477,55.18c0-1.493,1.215-2.709,2.709-2.709s2.709,1.216,2.709,2.709 c0,1.494-1.215,2.709-2.709,2.709S18.477,56.674,18.477,55.18z" style="fill: rgb(255, 253, 76);"></path></g><g id="__id16_s51lpru22r"><path d="M24.846,81.025c-3.699,0-6.709,3.01-6.709,6.709s3.01,6.709,6.709,6.709s6.709-3.01,6.709-6.709 S28.545,81.025,24.846,81.025z M24.846,90.443c-1.494,0-2.709-1.215-2.709-2.709s1.215-2.709,2.709-2.709s2.709,1.215,2.709,2.709 S26.34,90.443,24.846,90.443z" style="fill: rgb(255, 253, 76);"></path></g><g id="__id17_s51lpru22r"><path d="M66.665,61.164c0.705-0.851,0.586-2.111-0.265-2.815l-6.074-5.03c0.591-1.203,0.932-2.55,0.932-3.978 c0-3.237-1.711-6.074-4.27-7.678l4.164-12.331c0.354-1.046-0.208-2.181-1.255-2.535c-1.048-0.353-2.182,0.208-2.534,1.255 l-4.149,12.287c-0.335-0.038-0.674-0.061-1.019-0.061c-1.707,0-3.3,0.483-4.665,1.307l-7.618-9.347 c-0.699-0.856-1.958-0.985-2.814-0.287c-0.856,0.698-0.984,1.958-0.287,2.814l7.819,9.595c-0.866,1.31-1.392,2.857-1.476,4.521 l-12.517,2.761c-1.079,0.238-1.76,1.306-1.522,2.384c0.206,0.934,1.033,1.569,1.951,1.569c0.143,0,0.288-0.015,0.433-0.047 l12.332-2.72c0.551,1.316,1.406,2.472,2.474,3.388l-16.83,22.188c-0.668,0.88-0.496,2.135,0.385,2.803 c0.361,0.273,0.786,0.406,1.207,0.406c0.604,0,1.202-0.272,1.595-0.791l17.236-22.723c0.735,0.193,1.502,0.306,2.297,0.306 c2.125,0,4.077-0.74,5.624-1.969l6.031,4.994c0.373,0.31,0.825,0.46,1.274,0.46C65.699,61.889,66.27,61.642,66.665,61.164z M52.195,54.404c-2.792,0-5.063-2.271-5.063-5.063c0-2.792,2.271-5.063,5.063-5.063c2.791,0,5.063,2.271,5.063,5.063 C57.258,52.133,54.986,54.404,52.195,54.404z" style="fill: rgb(255, 255, 255);"></path></g></g></svg>
